<?xml version="1.0" encoding="UTF-8"?> <svg xmlns="http://www.w3.org/2000/svg" width="59" height="51" viewBox="0 0 59 51" fill="none"><path d="M55.3465 0.147461H0V16.2483H55.3465V0.147461Z" fill="#35EABF"></path><path d="M55.3465 18.2607H0V32.3489H55.3465V18.2607Z" fill="#35EABF"></path><path d="M7.39951 11.986C9.85141 11.986 11.8391 9.99839 11.8391 7.54649C11.8391 5.09459 9.85141 3.10693 7.39951 3.10693C4.94762 3.10693 2.95996 5.09459 2.95996 7.54649C2.95996 9.99839 4.94762 11.986 7.39951 11.986Z" fill="white"></path><path d="M59.0003 10.4985H18.6318V11.5336H59.0003V10.4985Z" fill="#070932"></path><path d="M59.0003 27.0596H18.6318V28.0947H59.0003V27.0596Z" fill="#070932"></path><path d="M55.3465 34.3618H0V50.4626H55.3465V34.3618Z" fill="#35EABF"></path><path d="M59.0003 43.6211H18.6318V44.6562H59.0003V43.6211Z" fill="#070932"></path><path d="M6.6013 9.4L6.78444 9.6002L6.96901 9.40132L11.7533 4.24626L11.9167 4.07024L11.7474 3.89994L11.415 3.56559L11.2315 3.38102L11.0544 3.57178L6.78645 8.17041L5.50802 6.77285L5.33253 6.58102L5.14772 6.76388L4.81581 7.09228L4.64492 7.26136L4.80718 7.43873L6.6013 9.4Z" fill="#070932" stroke="#070932" stroke-width="0.5"></path></svg> 