<?xml version="1.0" encoding="UTF-8"?> <svg xmlns="http://www.w3.org/2000/svg" width="77" height="71" viewBox="0 0 77 71" fill="none"><path d="M62.2457 37.9316H34.1962L19.4512 61.1005C23.8793 63.7643 28.9869 65.1721 34.1962 65.1645C49.6875 65.1645 62.2457 52.9719 62.2457 37.9316Z" fill="#35EABF"></path><path d="M32.7772 61.6694H32.7765C27.83 61.6766 22.9777 60.3851 18.7319 57.9372L33.0517 35.4365H60.322C60.0474 49.9567 47.834 61.6694 32.7772 61.6694Z" stroke="black"></path><path d="M3.30228e-05 34.0401C-0.00224855 38.7181 1.22587 43.319 3.56758 47.405C5.90928 51.4909 9.28668 54.9261 13.3785 57.3837L28.2055 34.0401L3.7126 20.4248C1.27261 24.5694 -0.00749622 29.2639 3.30228e-05 34.0401Z" fill="#35EABF"></path><path d="M38.9382 4.86279L33.0674 31.1231H60.3003C60.3003 18.2632 51.1562 7.51375 38.9382 4.86279Z" fill="#070932"></path><path d="M29.2101 2.20011e-06C24.464 -0.00196211 19.8019 1.31144 15.6966 3.80698C11.5914 6.30252 8.18912 9.8914 5.83496 14.2095L29.2101 28.2055L35.013 0.659257C33.1071 0.220511 31.1615 -0.000530056 29.2101 2.20011e-06Z" fill="#35EABF"></path><path d="M69.9446 12H56.3281V12.9726H69.9446V12Z" fill="#35EABF"></path><path d="M64.9446 63H51.3281V63.9726H64.9446V63Z" fill="#070932"></path><path d="M44.8281 54L51.3281 60H64.8281" stroke="black"></path><path d="M39.8281 24L55.8281 8.5H69.3281" stroke="#35EABF"></path></svg> 