<?xml version="1.0" encoding="UTF-8"?> <svg xmlns="http://www.w3.org/2000/svg" width="59" height="67" viewBox="0 0 59 67" fill="none"><path d="M25.5 65.9999C43.4492 65.9999 58 51.4492 58 33.4999C58 15.5507 43.4492 1 25.5 1H22.5V32" stroke="#070932"></path><path d="M10.9253 58.894C15.3863 61.4602 20.4403 62.8163 25.5868 62.8279C33.381 62.8278 40.8566 59.7341 46.3715 54.2263C51.8864 48.7184 54.9898 41.2469 54.9999 33.4526C55.01 25.6584 51.9262 18.1788 46.4256 12.6566C40.925 7.13443 33.4575 4.02128 25.6633 4.00089L25.3576 4V33.3136L0 47.9331L0.154094 48.1975C2.75131 52.6405 6.46434 56.3278 10.9253 58.894Z" fill="#35EABF"></path><path d="M25.5841 44.4817C31.6966 44.4817 36.6517 39.5266 36.6517 33.4142C36.6517 27.3018 31.6966 22.3467 25.5841 22.3467C19.4717 22.3467 14.5166 27.3018 14.5166 33.4142C14.5166 39.5266 19.4717 44.4817 25.5841 44.4817Z" fill="#070932"></path><path d="M25.5875 38.9339C28.6362 38.9339 31.1077 36.4624 31.1077 33.4137C31.1077 30.365 28.6362 27.8936 25.5875 27.8936C22.5388 27.8936 20.0674 30.365 20.0674 33.4137C20.0674 36.4624 22.5388 38.9339 25.5875 38.9339Z" fill="#35EABF"></path></svg> 