<?xml version="1.0" encoding="UTF-8"?> <svg xmlns="http://www.w3.org/2000/svg" width="62" height="55" viewBox="0 0 62 55" fill="none"><mask id="path-1-inside-1" fill="white"><path d="M58 51H4V52H58V51Z"></path></mask><path d="M58 51H4V52H58V51Z" fill="#070932"></path><path d="M4 51V46H-1V51H4ZM58 51H63V46H58V51ZM58 52V57H63V52H58ZM4 52H-1V57H4V52ZM4 56H58V46H4V56ZM53 51V52H63V51H53ZM58 47H4V57H58V47ZM9 52V51H-1V52H9Z" fill="#070932" mask="url(#path-1-inside-1)"></path><mask id="path-3-inside-2" fill="white"><path d="M19 35H18V52H19V35Z"></path></mask><path d="M19 35H18V52H19V35Z" fill="#070932"></path><path d="M18 35V30H13V35H18ZM19 35H24V30H19V35ZM19 52V57H24V52H19ZM18 52H13V57H18V52ZM18 40H19V30H18V40ZM14 35V52H24V35H14ZM19 47H18V57H19V47ZM23 52V35H13V52H23Z" fill="#070932" mask="url(#path-3-inside-2)"></path><mask id="path-5-inside-3" fill="white"><path d="M32 21H31V52H32V21Z"></path></mask><path d="M32 21H31V52H32V21Z" fill="#070932"></path><path d="M31 21V16H26V21H31ZM32 21H37V16H32V21ZM32 52V57H37V52H32ZM31 52H26V57H31V52ZM31 26H32V16H31V26ZM27 21V52H37V21H27ZM32 47H31V57H32V47ZM36 52V21H26V52H36Z" fill="#070932" mask="url(#path-5-inside-3)"></path><mask id="path-7-inside-4" fill="white"><path d="M45 3H44V52H45V3Z"></path></mask><path d="M45 3H44V52H45V3Z" fill="#070932"></path><path d="M44 3V-2H39V3H44ZM45 3H50V-2H45V3ZM45 52V57H50V52H45ZM44 52H39V57H44V52ZM44 8H45V-2H44V8ZM40 3V52H50V3H40ZM45 47H44V57H45V47ZM49 52V3H39V52H49Z" fill="#070932" mask="url(#path-7-inside-4)"></path><path d="M18.651 54.5207C20.1755 54.5207 21.4113 53.2848 21.4113 51.7603C21.4113 50.2358 20.1755 49 18.651 49C17.1265 49 15.8906 50.2358 15.8906 51.7603C15.8906 53.2848 17.1265 54.5207 18.651 54.5207Z" fill="#35EABF"></path><path d="M31.4146 54.675C32.9391 54.675 34.175 53.4391 34.175 51.9146C34.175 50.3901 32.9391 49.1543 31.4146 49.1543C29.8901 49.1543 28.6543 50.3901 28.6543 51.9146C28.6543 53.4391 29.8901 54.675 31.4146 54.675Z" fill="#35EABF"></path><path d="M44.1803 54.675C45.7048 54.675 46.9406 53.4391 46.9406 51.9146C46.9406 50.3901 45.7048 49.1543 44.1803 49.1543C42.6558 49.1543 41.4199 50.3901 41.4199 51.9146C41.4199 53.4391 42.6558 54.675 44.1803 54.675Z" fill="#35EABF"></path><path d="M44.2809 5.93528C45.7439 5.93528 46.9299 4.74926 46.9299 3.28624C46.9299 1.82322 45.7439 0.637207 44.2809 0.637207C42.8178 0.637207 41.6318 1.82322 41.6318 3.28624C41.6318 4.74926 42.8178 5.93528 44.2809 5.93528Z" fill="#35EABF"></path><path d="M44.2125 23.5119C45.6755 23.5119 46.8616 22.3259 46.8616 20.8629C46.8616 19.3999 45.6755 18.2139 44.2125 18.2139C42.7495 18.2139 41.5635 19.3999 41.5635 20.8629C41.5635 22.3259 42.7495 23.5119 44.2125 23.5119Z" fill="#35EABF"></path><path d="M31.4147 23.5324C32.8777 23.5324 34.0637 22.3464 34.0637 20.8834C34.0637 19.4204 32.8777 18.2344 31.4147 18.2344C29.9516 18.2344 28.7656 19.4204 28.7656 20.8834C28.7656 22.3464 29.9516 23.5324 31.4147 23.5324Z" fill="#35EABF"></path><path d="M31.3463 37.5134C32.8093 37.5134 33.9953 36.3274 33.9953 34.8644C33.9953 33.4013 32.8093 32.2153 31.3463 32.2153C29.8833 32.2153 28.6973 33.4013 28.6973 34.8644C28.6973 36.3274 29.8833 37.5134 31.3463 37.5134Z" fill="#35EABF"></path><path d="M18.7369 37.5339C20.1999 37.5339 21.386 36.3479 21.386 34.8849C21.386 33.4219 20.1999 32.2358 18.7369 32.2358C17.2739 32.2358 16.0879 33.4219 16.0879 34.8849C16.0879 36.3479 17.2739 37.5339 18.7369 37.5339Z" fill="#35EABF"></path><path d="M2.45982 5.74532C3.81834 5.74532 4.91964 4.64402 4.91964 3.2855C4.91964 1.92698 3.81834 0.825684 2.45982 0.825684C1.1013 0.825684 0 1.92698 0 3.2855C0 4.64402 1.1013 5.74532 2.45982 5.74532Z" fill="#070932"></path><path d="M2.45982 23.154C3.81834 23.154 4.91964 22.0527 4.91964 20.6942C4.91964 19.3357 3.81834 18.2344 2.45982 18.2344C1.1013 18.2344 0 19.3357 0 20.6942C0 22.0527 1.1013 23.154 2.45982 23.154Z" fill="#070932"></path><path d="M2.45982 37.3444C3.81834 37.3444 4.91964 36.2431 4.91964 34.8846C4.91964 33.5261 3.81834 32.4248 2.45982 32.4248C1.1013 32.4248 0 33.5261 0 34.8846C0 36.2431 1.1013 37.3444 2.45982 37.3444Z" fill="#070932"></path><path d="M61.8078 0.995117H57.2666V5.53632H61.8078V0.995117Z" fill="#35EABF"></path><path d="M61.8078 18.4028H57.2666V22.944H61.8078V18.4028Z" fill="#35EABF"></path><path d="M61.8078 32.5942H57.2666V37.1354H61.8078V32.5942Z" fill="#35EABF"></path><path d="M2.45982 53.9196C3.81834 53.9196 4.91964 52.8183 4.91964 51.4598C4.91964 50.1013 3.81834 49 2.45982 49C1.1013 49 0 50.1013 0 51.4598C0 52.8183 1.1013 53.9196 2.45982 53.9196Z" fill="#070932"></path><path d="M61.8078 49.1694H57.2666V53.7106H61.8078V49.1694Z" fill="#070932"></path></svg> 